<?xml version="1.0" encoding="UTF-8" standalone="no"?>
<!-- Generator: Adobe Illustrator 16.0.0, SVG Export Plug-In . SVG Version: 6.00 Build 0)  -->

<svg
   xmlns:dc="http://purl.org/dc/elements/1.1/"
   xmlns:cc="http://creativecommons.org/ns#"
   xmlns:rdf="http://www.w3.org/1999/02/22-rdf-syntax-ns#"
   xmlns:svg="http://www.w3.org/2000/svg"
   xmlns="http://www.w3.org/2000/svg"
   xmlns:sodipodi="http://sodipodi.sourceforge.net/DTD/sodipodi-0.dtd"
   xmlns:inkscape="http://www.inkscape.org/namespaces/inkscape"
   version="1.1"
   id="Capa_1"
   x="0px"
   y="0px"
   width="512px"
   height="512px"
   viewBox="0 0 509.054 509.054"
   style="enable-background:new 0 0 509.054 509.054;"
   xml:space="preserve"
   sodipodi:docname="icon.svg"
   inkscape:version="0.92.1 r15371"><metadata
     id="metadata3731"><rdf:RDF><cc:Work
         rdf:about=""><dc:format>image/svg+xml</dc:format><dc:type
           rdf:resource="http://purl.org/dc/dcmitype/StillImage" /></cc:Work></rdf:RDF></metadata><defs
     id="defs3729" /><sodipodi:namedview
     pagecolor="#ffffff"
     bordercolor="#666666"
     borderopacity="1"
     objecttolerance="10"
     gridtolerance="10"
     guidetolerance="10"
     inkscape:pageopacity="0"
     inkscape:pageshadow="2"
     inkscape:window-width="1920"
     inkscape:window-height="1017"
     id="namedview3727"
     showgrid="false"
     inkscape:zoom="1.65625"
     inkscape:cx="186.26415"
     inkscape:cy="256"
     inkscape:window-x="-8"
     inkscape:window-y="-8"
     inkscape:window-maximized="1"
     inkscape:current-layer="layer1" /><g
     id="g3696" /><g
     id="g3698" /><g
     id="g3700" /><g
     id="g3702" /><g
     id="g3704" /><g
     id="g3706" /><g
     id="g3708" /><g
     id="g3710" /><g
     id="g3712" /><g
     id="g3714" /><g
     id="g3716" /><g
     id="g3718" /><g
     id="g3720" /><g
     id="g3722" /><g
     id="g3724" /><g
     inkscape:groupmode="layer"
     id="layer2"
     inkscape:label="Layer 2"
     style="display:inline"><circle
       id="path3739"
       cx="254.22685"
       cy="256.62808"
       r="217.00827"
       style="fill:#24381b;fill-opacity:1;stroke-width:0.99424607" /></g><g
     inkscape:groupmode="layer"
     id="layer1"
     inkscape:label="Layer 1"
     style="display:inline"><g
       id="g3694"
       transform="matrix(0.54800644,0,0,0.53209337,118.64591,115.85781)"
       style="fill:#ffffff"><g
         id="g3692"
         style="fill:#ffffff"><path
           d="M 75.377,0 H 45.111 L 6.284,36.258 26.552,57.958 C 34.546,50.917 39.305,45.773 40.829,42.541 H 41.4 v 3.427 c 0,7.613 -0.05,19.126 -0.144,34.545 -0.096,15.417 -0.144,27.027 -0.144,34.831 h -30.55 v 28.266 h 95.646 V 115.344 H 75.377 Z"
           id="path3680"
           inkscape:connector-curvature="0"
           style="fill:#ffffff" /><path
           d="m 505.489,73.232 c -1.816,-1.809 -3.952,-2.712 -6.43,-2.712 H 151.886 c -2.474,0 -4.611,0.903 -6.423,2.712 -1.805,1.809 -2.708,3.949 -2.708,6.424 v 54.817 c 0,2.475 0.9,4.615 2.708,6.424 1.812,1.807 3.949,2.712 6.423,2.712 h 347.176 c 2.478,0 4.617,-0.905 6.427,-2.712 1.808,-1.809 2.707,-3.949 2.707,-6.424 V 79.656 c 0.004,-2.474 -0.899,-4.615 -2.707,-6.424 z"
           id="path3682"
           inkscape:connector-curvature="0"
           style="fill:#ffffff" /><path
           d="m 73.664,420.834 27.123,-32.833 V 362.876 H 5.712 v 43.396 H 35.974 V 391.14 c 3.046,0 7.661,-0.086 13.85,-0.277 6.182,-0.195 10.8,-0.288 13.846,-0.288 v 0.288 c -3.621,3.426 -7.139,7.087 -10.566,10.992 -3.427,3.904 -7.471,9.041 -12.135,15.409 -4.661,6.379 -7.751,10.521 -9.275,12.423 l 7.421,15.988 c 19.985,-1.526 29.979,3.802 29.979,15.988 0,5.328 -2.046,9.373 -6.139,12.128 -4.089,2.766 -8.897,4.145 -14.417,4.145 -10.848,0 -20.937,-4.281 -30.262,-12.85 L 1.998,490.211 c 12.562,12.562 28.931,18.843 49.109,18.843 15.416,0 28.31,-4.374 38.688,-13.131 10.373,-8.758 15.559,-20.749 15.559,-35.974 0,-9.709 -2.859,-18.083 -8.562,-25.129 -5.712,-7.036 -13.417,-11.704 -23.128,-13.986 z"
           id="path3684"
           inkscape:connector-curvature="0"
           style="fill:#ffffff" /><path
           d="m 75.942,298.066 h -36.26 c 0.193,-4.76 3.571,-9.756 10.138,-14.985 6.567,-5.232 13.747,-10.037 21.555,-14.417 7.801,-4.381 14.939,-10.514 21.412,-18.412 6.472,-7.9 9.707,-16.608 9.707,-26.125 0,-13.515 -4.757,-24.222 -14.273,-32.121 -9.514,-7.898 -21.223,-11.849 -35.117,-11.849 -11.042,0 -21.083,2.712 -30.124,8.138 -9.04,5.424 -15.843,12.991 -20.412,22.701 l 24.27,16.844 c 6.663,-11.042 14.371,-16.56 23.125,-16.56 4.762,0 8.52,1.285 11.281,3.854 2.757,2.574 4.141,6.235 4.141,10.994 0,4.377 -2.238,8.66 -6.711,12.847 -4.475,4.187 -9.851,8.326 -16.134,12.419 -6.28,4.093 -12.563,8.615 -18.842,13.563 -6.28,4.949 -11.661,11.417 -16.134,19.411 -4.471,7.994 -6.708,16.847 -6.708,26.553 0,3.425 0.571,8.565 1.711,15.417 H 105.92 v -45.402 -0.004 H 75.942 Z"
           id="path3686"
           inkscape:connector-curvature="0"
           style="fill:#ffffff" /><path
           d="M 499.06,362.876 H 151.886 c -2.663,0 -4.853,0.858 -6.563,2.569 -1.713,1.712 -2.568,3.901 -2.568,6.564 v 54.819 c 0,2.475 0.9,4.616 2.708,6.423 1.812,1.808 3.949,2.711 6.423,2.711 h 347.176 c 2.478,0 4.617,-0.896 6.427,-2.711 1.808,-1.807 2.707,-3.948 2.707,-6.423 V 372.01 c 0,-2.471 -0.906,-4.613 -2.707,-6.42 -1.813,-1.808 -3.952,-2.714 -6.429,-2.714 z"
           id="path3688"
           inkscape:connector-curvature="0"
           style="fill:#ffffff" /><path
           d="M 499.06,216.698 H 151.886 c -2.663,0 -4.853,0.855 -6.563,2.568 -1.713,1.713 -2.568,3.903 -2.568,6.567 v 54.818 c 0,2.475 0.9,4.613 2.708,6.424 1.812,1.81 3.949,2.714 6.423,2.714 h 347.176 c 2.478,0 4.617,-0.904 6.427,-2.714 1.808,-1.811 2.707,-3.949 2.707,-6.424 v -54.818 c 0,-2.474 -0.906,-4.615 -2.707,-6.423 -1.813,-1.808 -3.952,-2.712 -6.429,-2.712 z"
           id="path3690"
           inkscape:connector-curvature="0"
           style="fill:#ffffff" /></g></g></g></svg>